<svg width="380" height="60" viewBox="0 0 380 60" fill="none" xmlns="http://www.w3.org/2000/svg">
<rect x="200" width="180" height="60" rx="5" fill="#4A99D3"/>
<path fill-rule="evenodd" clip-rule="evenodd" d="M246.57 29.1392C246.537 25.4659 249.62 23.6785 249.762 23.5951C248.015 21.0838 245.309 20.7412 244.357 20.7134C242.084 20.4776 239.879 22.0549 238.721 22.0549C237.54 22.0549 235.757 20.7369 233.834 20.7754C231.362 20.8124 229.048 22.2251 227.779 24.418C225.16 28.8898 227.113 35.4612 229.622 39.076C230.877 40.8456 232.343 42.8226 234.263 42.7528C236.141 42.6765 236.843 41.5723 239.109 41.5723C241.355 41.5723 242.014 42.7528 243.971 42.7086C245.987 42.6765 247.256 40.9304 248.467 39.1444C249.917 37.1154 250.5 35.1171 250.523 35.0145C250.476 34.9981 246.609 33.5426 246.57 29.1392ZM242.872 18.336C243.882 17.0893 244.573 15.3952 244.382 13.6747C242.92 13.7388 241.091 14.6721 240.039 15.8903C239.107 16.9646 238.275 18.7243 238.49 20.3793C240.132 20.5004 241.818 19.5621 242.872 18.336ZM269.254 36.1736L267.953 32.2125C267.816 31.8079 267.558 30.8547 267.178 29.355H267.131C266.901 30.3108 266.657 31.2634 266.401 32.2125L265.124 36.1736H269.254ZM273.749 42.4984H271.124L269.687 38.043H264.69L263.32 42.4984H260.764L265.716 27.3296H268.773L273.749 42.4984ZM283.971 36.9843C283.971 35.9192 283.729 35.0415 283.241 34.3512C282.708 33.6302 281.992 33.2705 281.096 33.2705C280.488 33.2705 279.935 33.4707 279.442 33.8668C278.948 34.2657 278.624 34.7858 278.473 35.4312C278.396 35.7326 278.358 35.9784 278.358 36.1721V37.9959C278.358 38.7917 278.606 39.4635 279.1 40.0121C279.594 40.5599 280.237 40.8335 281.028 40.8335C281.956 40.8335 282.678 40.4801 283.195 39.7756C283.712 39.0703 283.971 38.1399 283.971 36.9843ZM286.481 36.8953C286.481 38.7554 285.972 40.2258 284.952 41.3051C284.039 42.2662 282.906 42.7464 281.552 42.7464C280.092 42.7464 279.042 42.2284 278.403 41.1933H278.357V46.9553H275.893V35.1612C275.893 33.9921 275.862 32.7917 275.801 31.5607H277.969L278.106 33.294H278.152C278.974 31.9881 280.221 31.3363 281.895 31.3363C283.203 31.3363 284.295 31.8456 285.168 32.8658C286.045 33.8867 286.481 35.2296 286.481 36.8953ZM296.727 36.9843C296.727 35.9192 296.483 35.0415 295.995 34.3512C295.462 33.6302 294.75 33.2705 293.851 33.2705C293.242 33.2705 292.691 33.4707 292.196 33.8668C291.702 34.2657 291.379 34.7858 291.227 35.4312C291.153 35.7326 291.113 35.9784 291.113 36.1721V37.9959C291.113 38.7917 291.361 39.4635 291.853 40.0121C292.348 40.5585 292.99 40.8335 293.784 40.8335C294.711 40.8335 295.434 40.4801 295.95 39.7756C296.468 39.0703 296.727 38.1399 296.727 36.9843ZM299.237 36.8953C299.237 38.7554 298.727 40.2258 297.707 41.3051C296.795 42.2662 295.661 42.7464 294.308 42.7464C292.848 42.7464 291.797 42.2284 291.159 41.1933H291.113V46.9553H288.649V35.1612C288.649 33.9921 288.619 32.7917 288.558 31.5607H290.725L290.863 33.294H290.909C291.73 31.9881 292.976 31.3363 294.651 31.3363C295.958 31.3363 297.05 31.8456 297.926 32.8658C298.799 33.8867 299.237 35.2296 299.237 36.8953ZM313.498 38.2446C313.498 39.5348 313.044 40.5849 312.132 41.3956C311.13 42.2811 309.735 42.7236 307.943 42.7236C306.288 42.7236 304.961 42.4087 303.957 41.7782L304.528 39.7528C305.61 40.3982 306.797 40.7217 308.09 40.7217C309.017 40.7217 309.74 40.5143 310.259 40.1019C310.776 39.6887 311.033 39.1351 311.033 38.4441C311.033 37.8285 310.82 37.3099 310.394 36.8896C309.97 36.4692 309.262 36.0774 308.272 35.7162C305.579 34.7259 304.234 33.2747 304.234 31.3669C304.234 30.1202 304.706 29.0971 305.65 28.3013C306.59 27.5049 307.846 27.1073 309.416 27.1073C310.815 27.1073 311.977 27.3474 312.906 27.8269L312.289 29.8088C311.422 29.3436 310.443 29.1107 309.346 29.1107C308.479 29.1107 307.802 29.3215 307.317 29.7411C306.906 30.1166 306.701 30.5733 306.701 31.1147C306.701 31.7145 306.936 32.2104 307.407 32.6001C307.817 32.9606 308.562 33.3503 309.643 33.7706C310.967 34.2964 311.939 34.9105 312.564 35.615C313.187 36.3175 313.498 37.1966 313.498 38.2446H313.498ZM321.645 33.3845H318.929V38.6948C318.929 40.0456 319.407 40.7202 320.367 40.7202C320.807 40.7202 321.172 40.6832 321.461 40.6077L321.529 42.4528C321.044 42.6324 320.405 42.7221 319.613 42.7221C318.64 42.7221 317.88 42.4293 317.33 41.8444C316.784 41.2588 316.509 40.2757 316.509 38.895V33.3823H314.891V31.5585H316.508V29.5552L318.929 28.8357V31.5585H321.645V33.3845ZM331.342 37.0185C331.342 36.0097 331.124 35.1448 330.681 34.4224C330.165 33.5497 329.426 33.1144 328.469 33.1144C327.479 33.1144 326.727 33.5504 326.21 34.4224C325.767 35.1456 325.549 36.024 325.549 37.0641C325.549 38.0729 325.767 38.9378 326.21 39.658C326.742 40.5314 327.487 40.9667 328.447 40.9667C329.387 40.9667 330.126 40.5222 330.659 39.6352C331.114 38.9 331.342 38.0259 331.342 37.0185ZM333.898 36.9401C333.898 38.6214 333.411 40.0014 332.438 41.0807C331.417 42.1921 330.063 42.7464 328.374 42.7464C326.747 42.7464 325.451 42.2135 324.485 41.1491C323.519 40.0848 323.036 38.7411 323.036 37.1211C323.036 35.4255 323.534 34.0377 324.531 32.9577C325.525 31.8777 326.868 31.337 328.557 31.337C330.184 31.337 331.493 31.8691 332.482 32.9349C333.427 33.9694 333.898 35.3037 333.898 36.9394V36.9401ZM341.908 33.6979C341.651 33.6521 341.391 33.6294 341.131 33.6302C340.264 33.6302 339.594 33.953 339.122 34.5991C338.712 35.1691 338.506 35.89 338.506 36.7592V42.4984H336.044L336.067 35.0052C336.067 33.7442 336.036 32.5972 335.974 31.5614H338.12L338.211 33.6545H338.279C338.539 32.9349 338.949 32.3564 339.511 31.9219C340.06 31.5307 340.653 31.3363 341.292 31.3363C341.52 31.3363 341.725 31.3519 341.908 31.3804V33.6979ZM350.578 35.8815C350.594 35.1619 350.433 34.5393 350.1 34.0135C349.673 33.3374 349.017 33.0005 348.135 33.0005C347.33 33.0005 346.675 33.3296 346.175 33.9907C345.765 34.5165 345.52 35.1463 345.445 35.8808H350.578V35.8815ZM352.927 36.512C352.927 36.9473 352.899 37.3149 352.837 37.6141H345.445C345.474 38.6948 345.832 39.5212 346.518 40.0912C347.141 40.6005 347.946 40.8563 348.936 40.8563C350.03 40.8563 351.029 40.6839 351.926 40.3384L352.312 42.0254C351.263 42.4771 350.024 42.7022 348.594 42.7022C346.875 42.7022 345.525 42.2021 344.543 41.2047C343.562 40.2073 343.072 38.8679 343.072 37.1881C343.072 35.5388 343.528 34.1653 344.442 33.0703C345.399 31.9005 346.692 31.3156 348.319 31.3156C349.918 31.3156 351.128 31.8998 351.95 33.0696C352.6 33.9986 352.927 35.1477 352.927 36.512ZM267.161 18.0297C267.161 17.1605 266.928 16.4937 266.461 16.0285C265.994 15.5647 265.313 15.3325 264.414 15.3325C264.033 15.3325 263.709 15.3574 263.439 15.4094V20.9827C263.588 21.0055 263.861 21.0154 264.257 21.0154C265.184 21.0154 265.9 20.7611 266.403 20.2532C266.908 19.7445 267.161 19.0036 267.161 18.0304V18.0297ZM268.439 17.9969C268.439 19.3391 268.03 20.3486 267.216 21.0268C266.461 21.6531 265.389 21.9665 264 21.9665C263.408 21.9715 262.816 21.9418 262.228 21.8775V14.546C262.918 14.4396 263.615 14.3879 264.314 14.3914C265.637 14.3914 266.635 14.6749 267.307 15.2427C268.061 15.8839 268.439 16.8022 268.439 17.9962V17.9969ZM273.953 19.208C273.953 18.7122 273.845 18.2869 273.629 17.9328C273.375 17.5039 273.013 17.2895 272.543 17.2895C272.056 17.2895 271.686 17.5032 271.431 17.9321C271.215 18.2869 271.107 18.7186 271.107 19.2294C271.107 19.7253 271.216 20.1506 271.432 20.5046C271.694 20.9335 272.059 21.148 272.531 21.148C272.994 21.148 273.356 20.93 273.617 20.4932C273.842 20.132 273.953 19.7039 273.953 19.208ZM275.21 19.1689C275.21 19.9953 274.971 20.6721 274.492 21.2035C273.991 21.7499 273.326 22.0221 272.497 22.0221C271.697 22.0221 271.06 21.7613 270.584 21.237C270.111 20.7134 269.874 20.0537 269.874 19.2579C269.874 18.4258 270.118 17.7433 270.608 17.2133C271.098 16.6832 271.756 16.4175 272.586 16.4175C273.386 16.4175 274.029 16.6782 274.516 17.2012C274.978 17.7098 275.21 18.3667 275.21 19.1689ZM284.289 16.5265L282.584 21.9003H281.475L280.768 19.5671C280.593 18.9963 280.447 18.4168 280.331 17.8309H280.309C280.204 18.4193 280.058 18.9995 279.871 19.5671L279.121 21.9003H277.999L276.396 16.5265H277.641L278.257 19.0812C278.406 19.6854 278.529 20.261 278.627 20.8053H278.648C278.739 20.3565 278.888 19.7844 279.099 19.0926L279.872 16.5279H280.858L281.599 19.0378C281.779 19.6505 281.924 20.2396 282.036 20.8067H282.069C282.161 20.2108 282.284 19.6203 282.44 19.0378L283.101 16.5279H284.29V16.5265H284.289ZM290.568 21.9003H289.357V18.8226C289.357 17.8744 288.992 17.3999 288.26 17.3999C287.9 17.3999 287.609 17.5296 287.384 17.791C287.163 18.0464 287.043 18.3743 287.048 18.7122V21.8988H285.837V18.0625C285.837 17.5901 285.822 17.0786 285.792 16.5244H286.857L286.914 17.365H286.947C287.088 17.1036 287.298 16.8877 287.574 16.716C287.905 16.5144 288.285 16.4097 288.673 16.4139C289.181 16.4139 289.604 16.5757 289.941 16.9005C290.359 17.2988 290.568 17.8922 290.568 18.6816V21.9003ZM292.698 21.9003H293.908V14.0615H292.698V21.9003ZM299.781 19.208C299.781 18.7122 299.672 18.2869 299.457 17.9328C299.204 17.5039 298.84 17.2895 298.372 17.2895C297.884 17.2895 297.514 17.5032 297.26 17.9321C297.044 18.2869 296.936 18.7186 296.936 19.2294C296.936 19.7253 297.044 20.1506 297.261 20.5046C297.523 20.9335 297.888 21.148 298.359 21.148C298.823 21.148 299.184 20.93 299.445 20.4932C299.67 20.132 299.781 19.7039 299.781 19.208ZM301.039 19.1689C301.039 19.9953 300.8 20.6721 300.321 21.2035C299.819 21.7499 299.154 22.0221 298.325 22.0221C297.524 22.0221 296.888 21.7613 296.414 21.237C295.939 20.7134 295.703 20.0537 295.703 19.2579C295.703 18.4258 295.947 17.7433 296.437 17.2133C296.927 16.6832 297.585 16.4175 298.414 16.4175C299.215 16.4175 299.856 16.6782 300.344 17.2012C300.807 17.7098 301.039 18.3667 301.039 19.1689ZM305.643 20.053V19.2258C304.307 19.2031 303.639 19.5642 303.639 20.3087C303.639 20.5887 303.715 20.7989 303.871 20.9385C304.028 21.0788 304.226 21.1487 304.463 21.1487C304.729 21.1487 304.977 21.0653 305.204 20.9C305.34 20.8057 305.452 20.6793 305.529 20.5319C305.605 20.3845 305.645 20.2205 305.643 20.0544V20.053ZM306.901 21.901H305.813L305.723 21.2819H305.689C305.317 21.7756 304.787 22.0228 304.098 22.0228C303.584 22.0228 303.168 21.8597 302.854 21.5362C302.57 21.242 302.428 20.8758 302.428 20.4419C302.428 19.7851 302.705 19.285 303.263 18.9387C303.82 18.5918 304.604 18.4222 305.613 18.4301V18.3289C305.613 17.6208 305.236 17.2674 304.481 17.2674C303.944 17.2674 303.47 17.4013 303.061 17.6657L302.815 16.8813C303.321 16.5721 303.946 16.4175 304.684 16.4175C306.108 16.4175 306.822 17.1584 306.822 18.6402V20.6186C306.822 21.1558 306.849 21.5832 306.9 21.9003L306.901 21.901ZM312.527 19.6341V18.7378C312.527 18.5832 312.516 18.4579 312.494 18.3617C312.429 18.0799 312.275 17.8263 312.056 17.6379C311.831 17.4437 311.543 17.3396 311.246 17.3458C310.794 17.3458 310.441 17.5217 310.18 17.8765C309.923 18.2306 309.792 18.6837 309.792 19.2365C309.792 19.7673 309.916 20.1983 310.164 20.5303C310.426 20.8836 310.78 21.0603 311.223 21.0603C311.62 21.0603 311.938 20.9129 312.18 20.6179C312.413 20.3451 312.527 20.0173 312.527 19.6341ZM313.783 21.8996H312.708L312.651 21.0375H312.618C312.274 21.6937 311.69 22.0221 310.868 22.0221C310.211 22.0221 309.664 21.7678 309.232 21.2598C308.798 20.7511 308.582 20.0914 308.582 19.2807C308.582 18.4116 308.817 17.7063 309.288 17.1684C309.744 16.6668 310.304 16.4161 310.969 16.4161C311.701 16.4161 312.213 16.659 312.505 17.1456H312.527V14.0615H313.74V20.4533C313.74 20.9763 313.754 21.4586 313.783 21.901V21.8996ZM322.886 19.208C322.886 18.7122 322.778 18.2869 322.561 17.9328C322.306 17.5039 321.946 17.2895 321.474 17.2895C320.988 17.2895 320.619 17.5032 320.363 17.9321C320.146 18.2869 320.038 18.7186 320.038 19.2294C320.038 19.7253 320.147 20.1506 320.363 20.5046C320.625 20.9335 320.99 21.148 321.463 21.148C321.924 21.148 322.289 20.93 322.55 20.4932C322.773 20.132 322.886 19.7039 322.886 19.208ZM324.141 19.1689C324.141 19.9953 323.902 20.6721 323.423 21.2035C322.922 21.7499 322.258 22.0221 321.428 22.0221C320.629 22.0221 319.992 21.7613 319.516 21.237C319.042 20.7134 318.805 20.0537 318.805 19.2579C318.805 18.4258 319.049 17.7433 319.539 17.2133C320.029 16.6832 320.688 16.4175 321.519 16.4175C322.317 16.4175 322.961 16.6782 323.447 17.2012C323.909 17.7098 324.141 18.3667 324.141 19.1689ZM330.654 21.9003H329.443V18.8226C329.443 17.8744 329.078 17.3999 328.344 17.3999C327.985 17.3999 327.695 17.5296 327.47 17.791C327.248 18.0461 327.129 18.3742 327.134 18.7122V21.8988H325.922V18.0625C325.922 17.5901 325.908 17.0786 325.88 16.5244H326.942L326.999 17.365H327.033C327.175 17.1036 327.385 16.8877 327.66 16.716C327.991 16.5145 328.372 16.4099 328.759 16.4139C329.266 16.4139 329.69 16.5757 330.026 16.9005C330.446 17.2988 330.653 17.8922 330.653 18.6816V21.9003H330.654ZM338.804 17.4213H337.471V20.0316C337.471 20.6956 337.708 21.0268 338.177 21.0268C338.395 21.0268 338.575 21.009 338.717 20.9713L338.748 21.8775C338.509 21.9665 338.194 22.0107 337.808 22.0107C337.329 22.0107 336.957 21.8668 336.688 21.5797C336.417 21.2926 336.283 20.8096 336.283 20.1313V17.4213H335.486V16.5265H336.283V15.5419L337.47 15.1886V16.5258H338.804V17.4213H338.805H338.804ZM345.216 21.9003H344.004V18.8454C344.004 17.8822 343.639 17.3999 342.907 17.3999C342.346 17.3999 341.962 17.6792 341.751 18.2377C341.712 18.3774 341.692 18.5221 341.695 18.6673V21.8988H340.486V14.0615H341.696V17.2995H341.719C342.101 16.7103 342.647 16.4161 343.355 16.4161C343.857 16.4161 344.272 16.5778 344.602 16.9027C345.012 17.3073 345.217 17.9093 345.217 18.7051V21.9003H345.216ZM350.675 18.6502C350.684 18.2961 350.605 17.9905 350.44 17.7326C350.23 17.4013 349.91 17.2346 349.476 17.2346C349.081 17.2346 348.759 17.3964 348.512 17.7212C348.307 17.9906 348.183 18.3128 348.153 18.6502H350.675H350.675ZM351.831 18.9594C351.831 19.1731 351.814 19.3534 351.785 19.5008H348.153C348.169 20.0316 348.343 20.4362 348.679 20.7169C348.986 20.9677 349.383 21.0931 349.869 21.0931C350.405 21.0931 350.895 21.009 351.337 20.8388L351.527 21.6687C351.01 21.8896 350.402 22.0007 349.699 22.0007C348.854 22.0007 348.19 21.7556 347.709 21.2655C347.226 20.7754 346.987 20.1171 346.987 19.2921C346.987 18.4814 347.21 17.8067 347.66 17.2688C348.129 16.6946 348.764 16.4068 349.565 16.4068C350.348 16.4068 350.943 16.6946 351.346 17.2688C351.67 17.7248 351.83 18.289 351.83 18.9594" fill="white"/>
<rect width="180" height="60" rx="5" fill="#4A99D3"/>
<path fill-rule="evenodd" clip-rule="evenodd" d="M22.9582 15.5223C22.6112 15.8714 22.4951 16.5681 22.4951 17.1495V42.6227C22.4951 43.2048 22.7267 43.7861 22.9582 44.2513L23.0743 44.3674L37.4281 30.0614V29.7123L22.9589 15.5216L22.9582 15.5223Z" fill="url(#paint0_linear_1_30)"/>
<path fill-rule="evenodd" clip-rule="evenodd" d="M42.174 34.7135L37.4279 29.9446V29.5955L42.174 24.8273L42.2894 24.9441L47.9617 28.2006C49.5824 29.131 49.5824 30.6435 47.9617 31.5739L42.174 34.7142V34.7135Z" fill="url(#paint1_linear_1_30)"/>
<path fill-rule="evenodd" clip-rule="evenodd" d="M42.2896 34.7134L37.3127 29.8284L22.9589 44.2499C23.6535 44.8319 24.695 44.8319 25.3896 44.3667L42.2896 34.7134Z" fill="url(#paint2_linear_1_30)"/>
<path fill-rule="evenodd" clip-rule="evenodd" d="M42.2894 24.9435L25.2747 15.4056C24.5794 14.9404 23.5364 14.9404 22.8425 15.5224L37.3118 29.8292L42.2894 24.9442V24.9435Z" fill="url(#paint3_linear_1_30)"/>
<path fill-rule="evenodd" clip-rule="evenodd" d="M65.904 18.5459C65.904 19.3602 65.5564 20.2906 65.0933 20.8719C64.7589 21.2058 64.3618 21.4702 63.9248 21.6499C63.4878 21.8297 63.0196 21.9212 62.5471 21.9192C61.621 21.9192 60.5787 21.5701 60.0002 20.8719C59.1902 20.1737 58.8425 19.244 58.8425 18.3129C58.8425 17.2664 59.1902 16.336 59.8848 15.7546C60.5787 15.0564 61.5048 14.5912 62.431 14.7074C62.8941 14.7074 63.3571 14.8235 63.8202 15.0564C64.1671 15.2894 64.6302 15.4055 64.9779 15.8707L64.3987 16.2198C63.8765 15.6985 63.1688 15.4056 62.431 15.4055C61.621 15.4055 60.9264 15.7546 60.3472 16.336C59.8276 16.8627 59.5366 17.573 59.5371 18.3129C59.5371 19.0111 59.8848 19.8254 60.3472 20.2906C60.8695 20.8121 61.5775 21.105 62.3156 21.1049C63.1256 21.1049 63.7048 20.7558 64.2833 20.2906C64.6302 19.8254 64.8618 19.2433 64.9779 18.7781H62.431V17.9645H65.7879C65.904 18.1968 65.904 18.4297 65.904 18.5459ZM71.2279 15.6385H68.1033V17.9645H70.8817V18.7781H68.1033V20.9888H71.2279V21.8023H67.1764V14.8235H71.2279V15.6385ZM74.9325 21.8023H74.0064V15.6385H72.0387V14.8235H76.7848V15.6385H74.8171V21.8031L74.9325 21.8023ZM80.3732 21.8023V14.8235H81.2994V21.6862C81.1833 21.8023 80.3732 21.8023 80.3732 21.8023ZM84.3086 21.8023V15.6385H82.3417V14.8235H87.0878V15.6385H85.1201C85.2355 15.6385 85.2355 21.8031 85.2355 21.8031H84.3094L84.3086 21.8023ZM96.2317 20.8719C94.8425 22.2683 92.6432 22.2683 91.0225 20.8719C90.3504 20.1903 89.9759 19.2701 89.9809 18.3129C89.9809 17.3825 90.3279 16.336 91.0225 15.7546C92.5278 14.2422 94.7271 14.2422 96.2317 15.6378C96.9037 16.3194 97.2783 17.2396 97.2732 18.1968C97.2732 19.244 96.9263 20.1745 96.2317 20.8719ZM91.7171 20.2906C92.7586 21.3378 94.4955 21.3378 95.4217 20.2906C95.9414 19.7636 96.2324 19.053 96.2317 18.3129C96.2317 17.6147 95.884 16.9173 95.4217 16.336C94.3794 15.2887 92.6432 15.2887 91.7171 16.336C91.1976 16.8627 90.9065 17.573 90.9071 18.3129C90.9071 19.0111 91.254 19.7093 91.7171 20.2906ZM98.547 21.8023V14.8235H99.704L103.061 20.1738V14.8235H103.987V21.6862H103.061L99.4725 15.9869V21.5694L98.5463 21.8023H98.547Z" fill="white" stroke="white" stroke-width="0.560673"/>
<path fill-rule="evenodd" clip-rule="evenodd" d="M89.8648 31.8054C87.0864 31.8054 85.0033 34.0153 85.1194 36.8066C85.2348 39.5985 87.3186 41.6923 90.0963 41.5755C92.7586 41.5755 94.8425 39.3656 94.8425 36.6904C94.8425 34.0153 92.7586 31.8054 89.8648 31.8054ZM89.8648 39.7147C88.2448 39.8315 86.8555 38.552 86.7394 36.9234C86.624 35.2948 87.8971 33.8992 89.5179 33.7831C91.1386 33.6662 92.5278 34.9457 92.6432 36.5743V36.8073C92.7586 38.319 91.4856 39.7147 89.8648 39.7147ZM79.1002 31.8054C76.3217 31.8054 74.2379 34.0153 74.354 36.8066C74.354 39.5985 76.5533 41.6923 79.3317 41.5755C81.994 41.5755 84.0771 39.3656 84.0771 36.6904C84.0771 34.0153 81.8779 31.8054 79.1002 31.8054ZM79.1002 39.7147C77.4794 39.8315 76.0902 38.552 75.9748 36.9234C75.8587 35.2948 77.1317 33.8992 78.7532 33.7831C80.3733 33.6662 81.7625 34.9457 81.8779 36.5743V36.8073C81.8779 38.319 80.7202 39.7147 79.0994 39.7147H79.1002ZM66.251 33.3171V35.4117H71.3448C71.2286 36.4582 70.8817 37.3886 70.1864 38.0868C69.1448 39.1333 67.7556 39.7147 66.3671 39.5985C63.3571 39.4824 61.0418 36.8073 61.1579 33.7831C61.2733 30.9911 63.5887 28.5489 66.3671 28.5489C67.7563 28.5489 69.1455 29.0141 70.071 30.0607L71.5756 28.6651C70.1864 27.2687 68.2187 26.5713 66.3671 26.5713C62.1995 26.339 58.7271 29.7116 58.4949 33.8992C58.2641 38.0868 61.621 41.5755 65.7879 41.8085H66.3671C68.3348 41.9246 70.3025 41.1103 71.6917 39.7147C73.0809 37.97 73.7748 35.7607 73.4279 33.5501H66.251V33.3179V33.3171ZM118.804 34.9457C118.225 33.0849 116.489 31.9215 114.521 31.8054C111.975 31.8054 109.89 33.7831 109.89 36.4575V36.6904C109.775 39.3656 111.859 41.5755 114.521 41.6916H114.752C116.373 41.6916 117.994 40.878 118.92 39.5985L117.183 38.4352C116.72 39.2495 115.794 39.7147 114.752 39.7147C114.246 39.716 113.75 39.575 113.32 39.3076C112.89 39.0403 112.544 38.6575 112.322 38.2029L118.919 35.4109L118.804 34.9457ZM112.09 36.5743C111.975 35.0626 113.132 33.7831 114.637 33.7831H114.752C115.562 33.6662 116.257 34.1322 116.605 34.8303L112.09 36.5743ZM106.649 41.3433H108.733V26.9203H106.649V41.3433ZM103.177 32.9688C102.366 32.2706 101.441 31.8054 100.399 31.8054C97.6202 31.9215 95.6532 34.2483 95.7686 37.0395C95.884 39.5985 97.8524 41.5755 100.399 41.6916C101.441 41.6916 102.366 41.3433 103.061 40.529H103.177V41.2271C103.409 42.6228 102.482 43.9023 101.093 44.0184H100.63C99.4725 44.0184 98.547 43.3202 98.084 42.2737L96.2317 43.088C96.9263 44.8327 98.6625 45.9961 100.63 45.9961C103.177 45.9961 105.261 44.4836 105.261 40.878V32.1545H103.177V32.9688ZM100.63 39.7154C99.0101 39.5985 97.8517 38.2029 97.8517 36.5743C97.9679 35.0626 99.1255 33.7831 100.63 33.7831C102.136 33.8992 103.409 35.0626 103.292 36.6904V36.8073C103.409 38.4352 102.251 39.7147 100.63 39.7147V39.7154ZM128.875 26.9203H123.666V41.3433H125.749V35.8762H128.759C131.19 36.1091 133.273 34.1322 133.505 31.6893C133.736 29.2464 131.769 27.1533 129.337 26.9203H128.874H128.875ZM128.875 33.8992H125.865V28.898H128.875C130.264 28.898 131.422 30.0607 131.422 31.3402C131.422 32.7365 130.379 33.8992 128.875 33.8992ZM142.418 31.8054C140.798 31.6893 139.292 32.6197 138.598 34.0153L140.566 34.8296C140.913 34.1314 141.723 33.6662 142.534 33.7824C143.692 33.6662 144.733 34.4805 144.849 35.6439V35.76C144.155 35.4109 143.344 35.1787 142.534 35.2948C140.566 35.2948 138.366 36.4582 138.366 38.552C138.482 40.4128 139.987 41.8085 141.955 41.6923H142.071C143.229 41.8085 144.155 41.2271 144.849 40.296H144.965V41.4594H147.049V35.8762C146.817 33.3179 144.849 31.8054 142.418 31.8054ZM142.071 39.7147C141.261 39.8315 140.566 39.3656 140.335 38.552C140.335 37.3886 141.492 37.0395 142.65 37.0395C143.344 37.0395 144.039 37.2725 144.617 37.5047C144.502 38.7842 143.344 39.7147 142.071 39.7147ZM154.341 32.1545L151.794 38.319L149.248 32.1545H146.932L150.752 40.878L148.553 45.7631H150.868L156.888 32.1545H154.341ZM134.894 41.3433H136.978V26.9203H134.894V41.3433Z" fill="white"/>
<defs>
<linearGradient id="paint0_linear_1_30" x1="35.9608" y1="42.7731" x2="13.0135" y2="36.6521" gradientUnits="userSpaceOnUse">
<stop stop-color="#4998D3"/>
<stop offset="0.01" stop-color="#4A99D3"/>
<stop offset="0.26" stop-color="#42BAEB"/>
<stop offset="0.51" stop-color="#41C7F2"/>
<stop offset="0.76" stop-color="#56C9E9"/>
<stop offset="1" stop-color="#5BCAE8"/>
</linearGradient>
<linearGradient id="paint1_linear_1_30" x1="49.9484" y1="29.8117" x2="21.937" y2="29.8117" gradientUnits="userSpaceOnUse">
<stop stop-color="#FEE000"/>
<stop offset="0.41" stop-color="#FEBD11"/>
<stop offset="0.78" stop-color="#FAA51A"/>
<stop offset="1" stop-color="#F99B1C"/>
</linearGradient>
<linearGradient id="paint2_linear_1_30" x1="29.8387" y1="36.7037" x2="11.4313" y2="5.77579" gradientUnits="userSpaceOnUse">
<stop stop-color="#EF4149"/>
<stop offset="1" stop-color="#C31E63"/>
</linearGradient>
<linearGradient id="paint3_linear_1_30" x1="9.67971" y1="43.046" x2="17.7035" y2="29.1744" gradientUnits="userSpaceOnUse">
<stop stop-color="#32A072"/>
<stop offset="0.07" stop-color="#2CA772"/>
<stop offset="0.48" stop-color="#4BBA71"/>
<stop offset="0.8" stop-color="#5EBD6B"/>
<stop offset="1" stop-color="#66BE69"/>
</linearGradient>
</defs>
</svg>
